<svg width="336" height="90" viewBox="0 0 336 90" fill="none" xmlns="http://www.w3.org/2000/svg">
<mask id="path-1-inside-1_155_54" fill="white">
<path d="M0 45C0 20.1472 20.1472 0 45 0H291C315.853 0 336 20.1472 336 45C336 69.8528 315.853 90 291 90H45C20.1472 90 0 69.8528 0 45Z"/>
</mask>
<path d="M0 45C0 17.3858 22.3858 -5 50 -5H286C313.614 -5 336 17.3858 336 45C336 22.9086 315.853 5 291 5H45C20.1472 5 0 22.9086 0 45ZM336 45C336 72.6142 313.614 95 286 95H50C22.3858 95 0 72.6142 0 45C0 67.0914 20.1472 85 45 85H291C315.853 85 336 67.0914 336 45ZM0 90V0V90ZM336 0V90V0Z" fill="#62A0BF" mask="url(#path-1-inside-1_155_54)"/>
</svg>
